<?xml version="1.0"?>
<svg xmlns="http://www.w3.org/2000/svg" height="512px" viewBox="1 -52 511.99989 511" width="512px"><path d="m130.886719 20.515625c4.140625.140625 8.050781-2.273437 9.679687-6.105469 1.636719-3.859375.621094-8.472656-2.472656-11.292968-3.070312-2.800782-7.78125-3.394532-11.46875-1.480469-3.703125 1.925781-5.867188 6.0625-5.320312 10.207031.632812 4.78125 4.761718 8.511719 9.582031 8.671875zm0 0" fill="#FFFFFF"/><path d="m498.160156 212.660156c-5.527344-.167968-10.140625 4.144532-10.320312 9.664063-.003906.109375-.007813.308593-.007813.417969 0 5.523437 4.476563 10 10 10 5.464844 0 9.90625-4.386719 9.996094-9.832032.144531-5.488281-4.171875-10.070312-9.667969-10.25zm0 0" fill="#FFFFFF"/><path d="m479.390625 242.558594c-1.953125 1.972656-4.1875 3.667968-6.648437 5.03125-7.261719 4.023437-15.855469 4.714844-23.574219 2.121094.804687-2.175782 1.574219-4.375 2.308593-6.585938 2.613282-5.15625 6.71875-9.527344 11.914063-12.40625 4.832031-2.675781 6.578125-8.765625 3.898437-13.59375-.789062-1.425781-1.882812-2.578125-3.148437-3.429688 12.402344-.378906 24.453125-5.40625 33.433594-14.390624 12.402343-12.402344 17.292969-30.644532 12.765625-47.605469-.921875-3.457031-3.625-6.160157-7.082032-7.082031-5.941406-1.585938-12.035156-1.992188-17.984374-1.351563 3.402343-3.304687 6.363281-7.109375 8.722656-11.359375 8.503906-15.339844 8.175781-34.222656-.855469-49.28125-1.808594-3.015625-5.066406-4.855469-8.574219-4.855469-.0625 0-.125 0-.183594 0-6.148437.113281-12.121093 1.402344-17.660156 3.660157 2.359375-4.117188 4.160156-8.589844 5.25-13.324219 3.949219-17.089844-1.570312-35.152344-14.402344-47.136719-2.613281-2.445312-6.335937-3.300781-9.757812-2.253906-7.757812 2.378906-14.667969 6.628906-20.261719 12.179687-1.027343-2.480469-2.238281-4.902343-3.6875-7.21875-9.292969-14.875-25.941406-23.7499998-43.515625-23.148437-3.578125.125-6.816406 2.148437-8.492187 5.308594-8.230469 15.507812-7.566407 34.382812 1.726562 49.257812 1.449219 2.316406 3.09375 4.46875 4.871094 6.480469-7.441406 2.59375-14.289063 6.941406-19.828125 12.871093-2.441406 2.613282-3.300781 6.335938-2.253906 9.757813 3.695312 12.050781 11.875 22.066406 22.511718 28.230469-.300781.988281-.46875 2.019531-.449218 3.082031.230468 12.605469 5.328125 24.488281 13.855468 33.34375-.5625.867187-1.007812 1.8125-1.28125 2.839844-3.253906 12.175781-1.625 25.003906 4.128907 35.867187-.777344.679688-1.472657 1.46875-2.015625 2.378906-6.484375 10.808594-8.453125 23.589844-5.917969 35.617188-.933594.4375-1.816406 1.003906-2.589844 1.726562-9.210937 8.605469-14.628906 20.34375-15.507812 32.605469-1.019531.164063-2.019531.464844-2.96875.949219-11.226563 5.734375-19.667969 15.527344-23.890625 27.070312-1.023438-.125-2.074219-.109374-3.113282.09375-17.234374 3.363282-31.484374 15.757813-37.195312 32.339844-4.28125 12.441406-3.328125 25.980469 2.277344 37.570313-15.382813 4.132812-31.542969 6.351562-48.214844 6.351562-16.667969 0-32.828125-2.21875-48.210938-6.351562 5.601563-11.589844 6.558594-25.128907 2.273438-37.570313-5.710938-16.582031-19.960938-28.976562-37.191406-32.339844-1.042969-.203124-2.089844-.21875-3.113282-.09375-4.226562-11.542968-12.667968-21.335937-23.894531-27.070312-.945312-.480469-1.949219-.785156-2.96875-.945312-.875-12.261719-6.292969-24.003907-15.503906-32.609376-.777344-.722656-1.660156-1.289062-2.59375-1.730468 2.535156-12.027344.566406-24.804688-5.917969-35.613282-.546875-.910156-1.234375-1.699218-2.015625-2.378906 5.753907-10.863281 7.382813-23.6875 4.128907-35.867187-.273438-1.027344-.71875-1.972657-1.28125-2.839844 8.527343-8.855469 13.625-20.738281 13.855468-33.339844.019532-1.0625-.148437-2.097656-.449218-3.085937 10.636718-6.160156 18.816406-16.175782 22.511718-28.230469 1.046875-3.417969.1875-7.140625-2.253906-9.757813-5.539062-5.929687-12.386719-10.277343-19.828125-12.867187 1.78125-2.015625 3.421875-4.167969 4.871094-6.484375 2.925781-4.683594 1.5-10.851562-3.183594-13.777344-4.683594-2.929687-10.851563-1.503906-13.78125 3.179688-4.414063 7.066406-11.636719 11.851562-19.6875 13.308594-2.222656-7.875-1.085937-16.464844 3.332031-23.53125 1.488282-2.382813 3.296875-4.53125 5.371094-6.375 4.125-3.671876 4.496094-9.992188.824219-14.121094-3.671875-4.125-9.992188-4.496094-14.121094-.820313-3.496094 3.113281-6.535156 6.71875-9.035156 10.71875-1.449219 2.316407-2.660157 4.738281-3.691407 7.222657-5.589843-5.554688-12.5-9.804688-20.261718-12.183594-3.421875-1.046875-7.140625-.1875-9.757813 2.253906-12.828125 11.984375-18.347656 30.046875-14.402343 47.136719 1.09375 4.738281 2.894531 9.207031 5.253906 13.324219-5.542969-2.257813-11.511719-3.546876-17.660156-3.660157-3.574219-.078125-6.917969 1.789063-8.761719 4.855469-9.027344 15.058594-9.355469 33.941406-.851563 49.28125 2.355469 4.253906 5.320313 8.054688 8.722656 11.363281-5.949218-.644531-12.042968-.238281-17.984374 1.347657-3.457032.921874-6.160157 3.625-7.082032 7.082031-4.527344 16.964843.363282 35.207031 12.765625 47.609375 3.429688 3.429687 7.308594 6.28125 11.484375 8.519531-5.886718 1.023437-11.621094 3.09375-16.886718 6.25-3.066407 1.839844-4.917969 5.183594-4.851563 8.757813.320313 17.554687 10.050781 33.742187 25.390625 42.246093 4.25 2.355469 8.777344 4.011719 13.414062 5.015625-5.386718 2.605469-10.335937 6.179688-14.535156 10.671875-2.441406 2.613281-3.300781 6.335938-2.25 9.757813 5.144532 16.785156 18.960938 29.664062 36.050782 33.609375 3.652343.84375 7.347656 1.253906 11.015624 1.253906 1.085938 0 2.167969-.046875 3.25-.121094-4.453124 3.988281-8.222656 8.785157-11.015624 14.257813-1.628907 3.1875-1.429688 7 .523437 10 9.105469 14 24.777344 22.4375 41.363281 22.4375.847656 0 1.703125-.023438 2.554688-.066406 4.855468-.257813 9.570312-1.253907 14.035156-2.859376-3.1875 5.0625-5.492188 10.71875-6.671875 16.753907-.6875 3.511719.558594 7.125 3.261719 9.46875 9.097656 7.894531 20.675781 12.066406 32.402344 12.066406 5.371093 0 10.773437-.875 15.980468-2.667969 13.699219-4.714844 24.519532-15.265625 29.773438-28.503906 5.726562 1.660156 11.554687 3.074219 17.46875 4.238281-3.792969 3.65625-7.109375 7.855469-9.808594 12.53125-2.761719 4.78125-1.121094 10.898438 3.660156 13.660157 1.574219.910156 3.296875 1.339843 4.992188 1.339843 3.457031 0 6.816406-1.792969 8.667968-5.003906 6.644532-11.503906 19.023438-18.648437 32.308594-18.648437 13.28125 0 25.660156 7.144531 32.304688 18.648437 2.761718 4.785156 8.875 6.425781 13.660156 3.660156 4.78125-2.757812 6.421875-8.875 3.660156-13.660156-2.699218-4.671875-6.019531-8.871094-9.808594-12.527344 5.914063-1.164062 11.742188-2.578125 17.464844-4.238281 5.253906 13.238281 16.078125 23.789062 29.773438 28.507812 5.210937 1.792969 10.609375 2.667969 15.984375 2.667969 11.726562 0 23.304687-4.175781 32.402343-12.066406 2.703126-2.347656 3.945313-5.957031 3.257813-9.472656-1.175781-6.03125-3.484375-11.6875-6.667969-16.753907 4.464844 1.605469 9.179688 2.605469 14.03125 2.859376.855469.042968 1.707032.066406 2.558594.066406 16.582031 0 32.257812-8.4375 41.363281-22.4375 1.953125-3 2.152344-6.8125.523438-10-2.792969-5.472656-6.5625-10.265625-11.015625-14.253906 1.078125.070312 2.160156.121093 3.246094.121093 3.671874 0 7.367187-.414062 11.019531-1.253906 17.089843-3.949219 30.902343-16.828125 36.050781-33.613281 1.050781-3.421875.191406-7.140625-2.253906-9.757813-4.195313-4.492187-9.148438-8.066406-14.53125-10.671875 4.636718-1.003906 9.164062-2.660156 13.414062-5.011718 4.125-2.289063 7.886719-5.136719 11.175782-8.464844 3.882812-3.929688 3.847656-10.261719-.082032-14.144532-3.929687-3.882812-10.261718-3.847656-14.144531.082032zm-407.484375-48.859375c-.394531-8.167969 2.644531-16.28125 8.539062-22.175781 5.894532-5.894532 14.011719-8.929688 22.175782-8.539063.394531 8.171875-2.644532 16.285156-8.535156 22.179687-5.894532 5.890626-14.015626 8.941407-22.179688 8.535157zm26.574219-53.429688c-7.292969 4.039063-15.925781 4.726563-23.671875 2.09375 1.871094-7.960937 7.03125-14.921875 14.320312-18.964843 7.285156-4.039063 15.921875-4.726563 23.667969-2.09375-1.871094 7.964843-7.03125 14.925781-14.316406 18.964843zm23.824219 129.660157c-1.875 8.121093-7.148438 14.996093-14.285157 18.992187-4.664062-6.722656-6.386719-15.210937-4.511719-23.332031s7.144532-14.996094 14.28125-18.992188c4.664063 6.722656 6.386719 15.210938 4.515626 23.332032zm-20.066407-40.398438c-4.039062 7.285156-11 12.445312-18.964843 14.316406-2.632813-7.746094-1.945313-16.382812 2.09375-23.667968 4.039062-7.289063 11.003906-12.449219 18.964843-14.320313 2.628907 7.746094 1.945313 16.382813-2.09375 23.671875zm72.722657 79.933594c7.515624 3.230468 13.476562 9.515625 16.1875 17.394531 2.714843 7.882813 1.890624 16.503906-2.046876 23.675781-7.519531-3.226562-13.476562-9.511718-16.191406-17.394531-2.710937-7.878906-1.886718-16.503906 2.050782-23.675781zm-22.234376-6.230469c.4375 8.320313-2.734374 16.382813-8.496093 22.191406-6.335938-5.175781-10.332031-12.863281-10.765625-21.183593-.4375-8.324219 2.730468-16.386719 8.492187-22.191407 6.335938 5.171875 10.332031 12.859375 10.769531 21.183594zm-37.652343-204.90625c-8.117188 1.875-16.609375.152344-23.332031-4.515625 3.996093-7.136719 10.875-12.40625 18.996093-14.28125 8.117188-1.875 16.605469-.152344 23.328125 4.511719-3.996094 7.140625-10.871094 12.40625-18.992187 14.285156zm-51.050781-58.050781c7.140624 3.996094 12.410156 10.871094 14.285156 18.988281 1.335937 5.800781.832031 11.785156-1.257813 17.183594-1.152343 2.015625-2.269531 4.046875-3.347656 6.09375-7.089844-4-12.324219-10.851563-14.191406-18.933594-1.875-8.125-.152344-16.613281 4.511719-23.332031zm-30.621094 58.261718c7.964844 1.875 14.925781 7.03125 18.964844 14.320313 2.855468 5.144531 4.027343 10.964844 3.546874 16.667969-.5625 2.3125-1.089843 4.636718-1.574218 6.96875-7.910156-1.894532-14.824219-7.035156-18.84375-14.285156-4.039063-7.289063-4.722656-15.925782-2.09375-23.671876zm-13.375 64.445313c8.179687-.386719 16.285156 2.648437 22.179687 8.539063 4.230469 4.234374 6.980469 9.609374 8.054688 15.332031.09375 2.292969.214843 4.574219.382812 6.847656-8.125.367187-16.207031-2.671875-22.078125-8.539063-5.890625-5.894531-8.929687-14.003906-8.539062-22.179687zm4.910156 65.640625c7.746094-2.632812 16.378906-1.949219 23.671875 2.09375 5.195313 2.878906 9.296875 7.246094 11.910156 12.398438.738281 2.214843 1.503907 4.414062 2.3125 6.59375-7.722656 2.59375-16.316406 1.902343-23.574219-2.121094-7.289062-4.042969-12.449218-11.003906-14.320312-18.964844zm41.800781 76.023438c-8.121093-1.875-14.996093-7.144532-18.992187-14.28125 6.722656-4.664063 15.210937-6.386719 23.332031-4.511719 5.988281 1.382812 11.296875 4.613281 15.277344 9.078125 1.207031 1.757812 2.445312 3.492187 3.707031 5.207031-6.71875 4.664063-15.207031 6.382813-23.324219 4.507813zm42.144531 47.273437c-8.308593.445313-16.382812-2.730469-22.191406-8.496094 5.175782-6.335937 12.863282-10.328125 21.183594-10.765625 6.160156-.328125 12.164062 1.328125 17.226562 4.539063 1.632813 1.347656 3.292969 2.660156 4.964844 3.957031-5.175781 6.335938-12.859375 10.332031-21.183594 10.765625zm53.546876 33.828125c-7.878907 2.710938-16.503907 1.886719-23.675782-2.050781 3.226563-7.515625 9.515625-13.476563 17.394532-16.1875 5.671874-1.953125 11.730468-2.0625 17.355468-.507813 2.074219.910156 4.167969 1.796875 6.28125 2.640625-3.238281 7.476563-9.507812 13.402344-17.355468 16.105469zm260.441406-262.351562c7.289062 4.042968 12.449218 11.003906 14.320312 18.964843-7.746094 2.632813-16.382812 1.949219-23.671875-2.09375-7.289062-4.039062-12.445312-11-14.320312-18.964843 7.75-2.628907 16.382812-1.945313 23.671875 2.09375zm-13.496094 39.585937c8.15625-.378906 16.285156 2.648437 22.179688 8.539063 5.890624 5.894531 8.929687 14.007812 8.535156 22.175781-8.15625.398437-16.285156-2.644531-22.175782-8.535157-5.894531-5.894531-8.933593-14.007812-8.539062-22.179687zm-1.707031 42.871094c7.964843 1.875 14.925781 7.03125 18.964843 14.320312 4.039063 7.289063 4.726563 15.925781 2.09375 23.671875-7.964843-1.871094-14.925781-7.03125-18.964843-14.316406-4.042969-7.289062-4.726563-15.925781-2.09375-23.675781zm.824219 59.734375c1.875 8.121094.152343 16.609375-4.511719 23.332031-7.140625-3.996094-12.410157-10.875-14.285157-18.992187-1.875-8.121094-.152343-16.609376 4.511719-23.332032 7.140625 3.996094 12.410157 10.871094 14.285157 18.992188zm83.476562-102.601563c.394531 8.171875-2.644531 16.28125-8.535156 22.175781-5.871094 5.867188-13.9375 8.914063-22.082032 8.539063.167969-2.269531.289063-4.550781.382813-6.839844 1.074219-5.726562 3.824219-11.105469 8.058594-15.339843 5.890625-5.890626 14-8.929688 22.175781-8.535157zm-15.46875-40.777343c-4.019531 7.25-10.929688 12.390624-18.84375 14.285156-.480469-2.332032-1.007812-4.65625-1.570312-6.96875-.480469-5.703125.691406-11.519532 3.546874-16.667969 4.039063-7.289063 11-12.445313 18.960938-14.320313 2.632812 7.746094 1.949219 16.382813-2.09375 23.671876zm-42.808594-62.945313c1.875-8.117187 7.144532-14.996094 14.285156-18.988281 4.664063 6.71875 6.386719 15.207031 4.511719 23.328125-1.867187 8.085937-7.101562 14.933593-14.191406 18.9375-1.082031-2.046875-2.199219-4.078125-3.347656-6.09375-2.089844-5.398438-2.597657-11.382813-1.257813-17.183594zm-46.476562-38.296875c8.046875 1.453125 15.269531 6.238281 19.6875 13.304688 4.417968 7.066406 5.550781 15.65625 3.328125 23.53125-8.050781-1.457032-15.269531-6.242188-19.6875-13.308594-4.414063-7.066406-5.550781-15.65625-3.328125-23.527344zm14.046875 58.5625c8.121093 1.875 14.996093 7.144531 18.992187 14.28125-6.71875 4.667969-15.207031 6.390625-23.332031 4.515625-8.117187-1.878906-14.996094-7.144531-18.992187-14.285156 6.722656-4.664063 15.214843-6.386719 23.332031-4.511719zm-41.988281 223.699219c.4375-8.320313 4.433593-16.007813 10.769531-21.179688 5.761719 5.808594 8.929687 13.867188 8.492187 22.191407-.4375 8.320312-4.429687 16.007812-10.769531 21.183593-5.757813-5.808593-8.929687-13.871093-8.492187-22.195312zm-38.425782 23.628906c2.714844-7.878906 8.671875-14.167969 16.191406-17.394531 3.9375 7.171875 4.761719 15.796875 2.046876 23.675781-2.714844 7.878906-8.671876 14.167969-16.1875 17.394531-3.9375-7.171875-4.761719-15.792968-2.050782-23.675781zm28.722656 58.890625c-7.851562-2.703125-14.117187-8.628906-17.355468-16.105469 2.113281-.847656 4.207031-1.730469 6.285156-2.644531 5.625-1.554688 11.675781-1.441406 17.351562.511719 7.878907 2.710937 14.167969 8.671875 17.394532 16.1875-7.171875 3.9375-15.796875 4.761719-23.675782 2.050781zm53.542969-33.828125c-8.320312-.433594-16.007812-4.429687-21.179687-10.765625 1.675781-1.296875 3.335937-2.613281 4.96875-3.960938 5.058594-3.210937 11.0625-4.863281 17.222656-4.535156 8.320312.4375 16.007812 4.429688 21.183594 10.769532-5.8125 5.757812-13.882813 8.941406-22.195313 8.492187zm42.144531-47.273437c-8.121093 1.875-16.601562.152343-23.324218-4.507813 1.261718-1.714844 2.5-3.449219 3.707031-5.207031 3.980469-4.460938 9.289063-7.695313 15.277344-9.078125 8.121093-1.875 16.609375-.15625 23.332031 4.511719-3.996094 7.136718-10.871094 12.40625-18.992188 14.28125zm0 0" fill="#FFFFFF"/></svg>
