<svg xmlns="http://www.w3.org/2000/svg" xmlns:xlink="http://www.w3.org/1999/xlink" version="1.1" x="0px" y="0px" viewBox="0 0 95 118.75" enable-background="new 0 0 95 95" xml:space="preserve"><path fill-rule="evenodd" clip-rule="evenodd" fill="#000000" d="M87.287,64.65c-1.954,3.648-3.824,7.386-8.148,8.948  c-0.693,0.25-1.733,0.635-2.172-0.037c-0.429-0.659,0.33-1.431,0.815-2.02c1.459-1.768,2.967-3.45,5.09-4.522  c1.45-0.732,2.743-1.777,4.104-2.683C87.081,64.44,87.184,64.547,87.287,64.65z"/><path fill-rule="evenodd" clip-rule="evenodd" fill="#000000" d="M7.315,63.504c2.688,2.416,6.204,3.445,8.466,6.229  c0.404,0.497,0.869,0.949,1.248,1.464c0.503,0.682,1.429,1.508,0.884,2.243c-0.5,0.674-1.634,0.183-2.459-0.04  c-1.077-0.29-2.026-0.866-2.857-1.602c-2.192-1.938-3.825-4.301-5.144-6.893C7.268,64.541,7.062,64.174,7.315,63.504z"/><path fill-rule="evenodd" clip-rule="evenodd" fill="#000000" d="M4.965,42.471c0.464,1.237,0.869,2.287,1.252,3.345  c0.885,2.45,2.514,4.545,3.343,7.023c0.187,0.562,0.487,1.085,0.673,1.646c0.236,0.712,0.949,1.622,0.303,2.146  c-0.747,0.605-1.615-0.199-2.309-0.654c-1.688-1.11-2.615-2.771-3.1-4.686c-0.574-2.27-0.718-4.596-0.781-6.924  C4.33,43.78,4.451,43.181,4.965,42.471z"/><path fill-rule="evenodd" clip-rule="evenodd" fill="#000000" d="M89.94,42.588c0.462,0.627,0.576,1.165,0.568,1.708  c-0.033,2.523-0.203,5.042-0.915,7.472c-0.63,2.15-1.871,3.867-4.002,4.787c-0.394,0.17-0.877,0.521-1.264,0.115  c-0.347-0.364-0.161-0.871,0.013-1.299c0.739-1.82,1.312-3.738,2.282-5.428c1.241-2.162,2.143-4.439,3.003-6.751  C89.685,43.034,89.781,42.889,89.94,42.588z"/><path fill-rule="evenodd" clip-rule="evenodd" fill="#000000" d="M4.156,53.316c2.491,3.446,5.565,5.869,7.972,8.894  c0.497,0.624,1.388,1.401,0.869,2.104c-0.451,0.609-1.552,0.26-2.337,0.001c-2.199-0.727-3.78-2.206-4.836-4.226  C4.778,58.086,4.176,55.949,4.156,53.316z"/><path fill-rule="evenodd" clip-rule="evenodd" fill="#000000" d="M90.273,53.859c0.574,3.846-1.916,8.487-5.173,9.946  c-0.943,0.423-2.226,1.021-2.891,0.192c-0.538-0.672,0.569-1.579,1.108-2.289C85.438,58.922,88.404,56.891,90.273,53.859z"/><path fill-rule="evenodd" clip-rule="evenodd" fill="#000000" d="M22.576,29.639c-2.265,3.005-4.644,5.895-7.44,8.41  c-0.525,0.473-1.189,0.813-1.888,0.443c-0.765-0.404-0.385-1.133-0.299-1.733c0.257-1.795,1.348-3.076,2.712-4.141  C17.68,31.041,20.034,30.188,22.576,29.639z"/><path fill-rule="evenodd" clip-rule="evenodd" fill="#000000" d="M72.332,29.616c3.149,0.771,6.125,1.827,8.319,4.363  c0.861,0.997,1.323,2.166,1.409,3.489c0.07,1.062-0.509,1.277-1.377,1.075c-0.299-0.069-0.608-0.235-0.838-0.44  C77.014,35.577,74.634,32.648,72.332,29.616z"/><path fill-rule="evenodd" clip-rule="evenodd" fill="#000000" d="M19.258,58.82c0.249,3.664,0.926,6.967,1.354,10.307  c0.066,0.514-0.022,1.018-0.244,1.474c-0.398,0.821-0.933,1.062-1.722,0.389c-1.214-1.036-1.914-2.349-2.059-3.908  C16.309,64.069,17.474,61.501,19.258,58.82z"/><path fill-rule="evenodd" clip-rule="evenodd" fill="#000000" d="M6.821,33.766c1.202,4.055,3.42,7.515,3.134,11.662  c-0.025,0.364,0.02,0.743-0.066,1.09c-0.176,0.71-0.512,1.029-1.23,0.447c-1.11-0.899-1.84-2.053-2.189-3.397  c-0.759-2.922-0.625-5.875-0.084-8.819C6.431,34.491,6.599,34.255,6.821,33.766z"/><path fill-rule="evenodd" clip-rule="evenodd" fill="#000000" d="M88.413,34.109c0.524,3.992,1.28,8.011-1.162,11.76  c-0.413,0.634-1.011,1.543-1.751,1.319c-0.839-0.254-0.56-1.337-0.541-2.081c0.057-2.25,0.332-4.441,1.363-6.521  c0.703-1.418,1.124-2.977,1.671-4.473C88.134,34.111,88.273,34.11,88.413,34.109z"/><path fill-rule="evenodd" clip-rule="evenodd" fill="#000000" d="M75.749,59.137c1.837,2.744,3.236,5.605,2.349,9.049  c-0.296,1.145-0.963,2.053-1.85,2.822c-0.807,0.7-1.331,0.361-1.7-0.442c-0.273-0.595-0.249-1.228-0.168-1.884  C74.771,65.508,75.477,62.377,75.749,59.137z"/><path fill-rule="evenodd" clip-rule="evenodd" fill="#000000" d="M11.389,24.221c-0.542,3.949-0.019,8.054-0.001,11.833  c0.001,0.365,0.008,0.732-0.023,1.095c-0.076,0.877-0.466,1.026-1.134,0.457c-1.657-1.414-2.309-3.285-2.215-5.377  c0.104-2.304,0.827-4.473,1.891-6.516C10.125,25.29,10.603,24.45,11.389,24.221z"/><path fill-rule="evenodd" clip-rule="evenodd" fill="#000000" d="M84.229,24.443c0.94,0.774,1.278,1.623,1.54,2.491  c0.687,2.275,1.423,4.548,0.848,6.982c-0.326,1.375-0.961,2.565-2.054,3.477c-0.298,0.249-0.641,0.677-1.064,0.396  c-0.359-0.238-0.316-0.743-0.282-1.145c0.159-1.866,0.179-3.766,0.564-5.586C84.228,28.937,84.081,26.808,84.229,24.443z"/><path fill-rule="evenodd" clip-rule="evenodd" fill="#000000" d="M76.726,38.145c3.12,0.539,7.242,4.639,7.648,7.635  c0.086,0.637,0.385,1.494-0.391,1.868c-0.79,0.382-1.4-0.226-1.867-0.802c-1.298-1.602-2.574-3.217-3.487-5.089  C78.037,40.543,77.372,39.365,76.726,38.145z"/><path fill-rule="evenodd" clip-rule="evenodd" fill="#000000" d="M18.481,37.651c-1.5,3.091-3.012,6.094-5.256,8.655  c-0.21,0.239-0.445,0.461-0.693,0.662c-0.373,0.302-0.816,0.48-1.28,0.301c-0.548-0.212-0.434-0.746-0.45-1.19  c-0.036-1.042,0.305-1.984,0.837-2.855c1.521-2.485,3.601-4.359,6.243-5.595C18.025,37.562,18.235,37.638,18.481,37.651z"/><path fill-rule="evenodd" clip-rule="evenodd" fill="#000000" d="M78.378,44.984c1.683,2.51,3.799,4.742,4.793,7.674  c0.312,0.922,0.366,1.881,0.129,2.835c-0.255,1.017-0.868,1.231-1.694,0.595c-0.483-0.371-0.754-0.904-1.031-1.43  C78.991,51.656,78.231,48.455,78.378,44.984z"/><path fill-rule="evenodd" clip-rule="evenodd" fill="#000000" d="M16.598,46.334c-0.026,2.94-0.915,5.647-2.225,8.24  c-0.082,0.163-0.164,0.327-0.259,0.481c-0.437,0.708-0.915,1.589-1.855,1.315c-0.969-0.281-0.811-1.365-0.798-2.125  c0.024-1.487,0.602-2.846,1.419-4.08c1.108-1.675,2.252-3.325,3.38-4.986C17.021,45.375,16.608,45.914,16.598,46.334z"/><path fill-rule="evenodd" clip-rule="evenodd" fill="#000000" d="M17.692,52.389c-0.46,3.152-0.453,5.955-1.149,8.668  c-0.158,0.615-0.312,1.238-0.546,1.828c-0.225,0.57-0.615,1.065-1.303,1.049c-0.624-0.014-0.736-0.611-0.952-1.043  c-0.723-1.442-0.616-2.928-0.112-4.395C14.4,56.254,15.802,54.42,17.692,52.389z"/><path fill-rule="evenodd" clip-rule="evenodd" fill="#000000" d="M77.233,52.377c2.227,2.471,3.979,4.736,4.402,7.762  c0.136,0.967-0.037,1.912-0.489,2.786c-0.223,0.431-0.346,1.019-0.976,1.011c-0.617-0.006-0.988-0.447-1.219-0.965  c-0.539-1.219-0.757-2.527-0.926-3.834C77.753,57.025,77.528,54.908,77.233,52.377z"/><path fill-rule="evenodd" clip-rule="evenodd" fill="#000000" d="M15.574,17.469c-0.045,3.404,0.89,6.815-0.4,10.105  c-0.296,0.757-0.439,2.02-1.196,1.976c-0.914-0.054-1.135-1.289-1.295-2.171C11.997,23.601,13.768,20.53,15.574,17.469z"/><path fill-rule="evenodd" clip-rule="evenodd" fill="#000000" d="M79.533,17.436c1.723,3.18,3.421,6.376,2.637,10.238  c-0.152,0.747-0.428,1.82-1.15,1.877c-0.849,0.066-0.966-1.061-1.211-1.758c-0.831-2.365-0.957-4.798-0.671-7.281  c0.113-0.983,0.019-1.99,0.019-2.987C79.282,17.495,79.407,17.465,79.533,17.436z"/><path fill-rule="evenodd" clip-rule="evenodd" fill="#000000" d="M24.313,14.099c-0.361,2.169-1.084,3.856-2.165,5.399  c-0.575,0.821-1.14,1.649-1.736,2.454c-0.424,0.574-0.967,1.058-1.734,0.787c-0.781-0.276-0.601-1.076-0.608-1.65  c-0.015-1.168,0.449-2.217,1.177-3.135C20.549,16.315,22.231,15.179,24.313,14.099z"/><path fill-rule="evenodd" clip-rule="evenodd" fill="#000000" d="M70.633,14.069c2.412,1.341,4.424,2.639,5.651,4.855  c0.477,0.859,0.688,1.787,0.514,2.769c-0.067,0.379,0.035,0.855-0.487,1.038c-0.54,0.189-1.054,0.061-1.38-0.342  C73.01,20.011,71.176,17.578,70.633,14.069z"/><path fill-rule="evenodd" clip-rule="evenodd" fill="#000000" d="M13.825,74.311c3.023,1.123,6.328,1.468,8.812,3.681  c0.552,0.49,1.609,0.888,1.24,1.734c-0.278,0.639-1.318,0.507-2.028,0.395C18.197,79.541,15.921,77.034,13.825,74.311z"/><g><path fill-rule="evenodd" clip-rule="evenodd" fill="#000000" d="M81.076,74.318c-2.144,2.729-4.401,5.295-8.095,5.807   c-0.685,0.095-1.673,0.256-1.95-0.504c-0.257-0.705,0.658-1.093,1.152-1.541C74.69,75.804,78.032,75.445,81.076,74.318z"/></g><path fill-rule="evenodd" clip-rule="evenodd" fill="#000000" d="M70.299,23.447c2.397,0.345,4.371,0.872,6.132,2.029  c1.237,0.812,2.085,1.913,2.417,3.369c0.09,0.391,0.218,0.833-0.157,1.157c-0.394,0.341-0.856,0.291-1.296,0.103  c-0.292-0.124-0.578-0.282-0.833-0.472C74.274,27.931,72.438,25.777,70.299,23.447z"/><path fill-rule="evenodd" clip-rule="evenodd" fill="#000000" d="M24.659,23.429c-2.221,2.419-4.153,4.719-6.655,6.438  c-0.5,0.344-1.107,0.596-1.667,0.209c-0.629-0.433-0.297-1.057-0.146-1.619c0.35-1.308,1.195-2.243,2.287-2.97  C20.263,24.297,22.282,23.799,24.659,23.429z"/><path fill-rule="evenodd" clip-rule="evenodd" fill="#000000" d="M19.415,80.683c2.829,0.607,5.842,0.189,8.539,1.601  c0.446,0.233,0.918,0.427,1.333,0.705c0.642,0.433,0.623,0.85-0.123,1.171c-0.958,0.412-1.96,0.502-2.968,0.316  c-2.445-0.449-4.549-1.641-6.515-3.104C19.499,81.235,19.327,81.072,19.415,80.683z"/><path fill-rule="evenodd" clip-rule="evenodd" fill="#000000" d="M21.689,67.522c1.458,2.737,2.865,5.155,3.626,7.869  c0.165,0.587,0.302,1.358-0.385,1.738c-0.622,0.342-1.109-0.212-1.557-0.556c-1.107-0.85-1.602-2.058-1.877-3.386  C21.122,71.385,21.318,69.611,21.689,67.522z"/><path fill-rule="evenodd" clip-rule="evenodd" fill="#000000" d="M75.576,80.906c-2.491,2.002-5.049,3.8-8.435,3.592  c-0.704-0.044-1.696-0.102-1.853-0.866c-0.176-0.852,0.889-0.986,1.461-1.275C69.51,80.958,72.587,81.198,75.576,80.906z"/><path fill-rule="evenodd" clip-rule="evenodd" fill="#000000" d="M27.051,72.313c1.155,2.63,2.427,4.858,3.103,7.339  c0.226,0.828,0.662,1.898-0.265,2.368c-0.886,0.448-1.54-0.514-2.094-1.143c-0.918-1.041-1.183-2.358-1.298-3.688  C26.362,75.632,26.586,74.101,27.051,72.313z"/><path fill-rule="evenodd" clip-rule="evenodd" fill="#000000" d="M73.233,67.463c0.458,2.506,0.622,4.601-0.056,6.691  c-0.377,1.167-1.019,2.13-2.09,2.763c-1.012,0.597-1.547,0.292-1.517-0.899c0.012-0.442,0.149-0.891,0.282-1.32  C70.607,72.253,71.944,70.083,73.233,67.463z"/><path fill-rule="evenodd" clip-rule="evenodd" fill="#000000" d="M67.926,72.332c0.579,2.535,0.837,4.725,0.107,6.924  c-0.318,0.963-0.795,1.808-1.721,2.368c-0.445,0.271-0.852,0.622-1.352,0.313c-0.504-0.309-0.42-0.882-0.348-1.371  c0.194-1.317,0.712-2.542,1.223-3.755C66.435,75.392,67.135,74.015,67.926,72.332z"/></svg>
